<svg width="22" height="10" viewBox="0 0 22 10" fill="none" xmlns="http://www.w3.org/2000/svg">
<path d="M7.248 7.08C7.248 7.872 7 8.492 6.504 8.94C6.008 9.38 5.368 9.6 4.584 9.6H0.864V1.056H4.404C5.276 1.056 5.948 1.28 6.42 1.728C6.892 2.176 7.128 2.776 7.128 3.528C7.128 4.232 6.816 4.796 6.192 5.22C6.32 5.3 6.428 5.376 6.516 5.448C6.604 5.512 6.712 5.62 6.84 5.772C6.968 5.916 7.068 6.1 7.14 6.324C7.212 6.548 7.248 6.8 7.248 7.08ZM4.956 7.5C5.084 7.348 5.148 7.168 5.148 6.96C5.148 6.752 5.084 6.576 4.956 6.432C4.836 6.288 4.644 6.216 4.38 6.216H2.964V7.716H4.38C4.644 7.716 4.836 7.644 4.956 7.5ZM4.848 4.128C4.968 3.992 5.028 3.828 5.028 3.636C5.028 3.444 4.968 3.28 4.848 3.144C4.728 3.008 4.536 2.94 4.272 2.94H2.964V4.332H4.272C4.536 4.332 4.728 4.264 4.848 4.128ZM13.9718 9.6H8.47584V7.824L11.5718 4.464C11.8598 4.152 12.0038 3.848 12.0038 3.552C12.0038 3.312 11.9358 3.12 11.7998 2.976C11.6718 2.832 11.4838 2.76 11.2358 2.76C11.0198 2.76 10.8318 2.824 10.6718 2.952C10.5198 3.08 10.4438 3.292 10.4438 3.588H8.47584C8.47584 2.78 8.73984 2.144 9.26784 1.68C9.80384 1.216 10.4598 0.983998 11.2358 0.983998C12.0438 0.983998 12.6998 1.216 13.2038 1.68C13.7158 2.144 13.9718 2.772 13.9718 3.564C13.9718 3.98 13.8918 4.332 13.7318 4.62C13.5718 4.908 13.2998 5.256 12.9158 5.664L10.8758 7.824H13.9718V9.6ZM21.7558 7.08C21.7558 7.872 21.5078 8.492 21.0118 8.94C20.5158 9.38 19.8758 9.6 19.0918 9.6H15.3718V1.056H18.9118C19.7838 1.056 20.4558 1.28 20.9278 1.728C21.3998 2.176 21.6358 2.776 21.6358 3.528C21.6358 4.232 21.3238 4.796 20.6998 5.22C20.8278 5.3 20.9358 5.376 21.0238 5.448C21.1118 5.512 21.2198 5.62 21.3478 5.772C21.4758 5.916 21.5758 6.1 21.6478 6.324C21.7198 6.548 21.7558 6.8 21.7558 7.08ZM19.4638 7.5C19.5918 7.348 19.6558 7.168 19.6558 6.96C19.6558 6.752 19.5918 6.576 19.4638 6.432C19.3438 6.288 19.1518 6.216 18.8878 6.216H17.4718V7.716H18.8878C19.1518 7.716 19.3438 7.644 19.4638 7.5ZM19.3558 4.128C19.4758 3.992 19.5358 3.828 19.5358 3.636C19.5358 3.444 19.4758 3.28 19.3558 3.144C19.2358 3.008 19.0438 2.94 18.7798 2.94H17.4718V4.332H18.7798C19.0438 4.332 19.2358 4.264 19.3558 4.128Z" fill="#2EA8E6"/>
</svg>
