<svg width="16" height="14" viewBox="0 0 16 14" fill="none" xmlns="http://www.w3.org/2000/svg">
<path d="M15.9879 7.31071L14.845 1.88893C14.6243 0.706071 13.7743 0 12.5714 0H3.42857C2.82857 0 2.32143 0.1675 1.925 0.497857C1.52857 0.828214 1.26893 1.29464 1.15429 1.88679L0.0114313 7.31071C0.00371013 7.34952 -0.000118359 7.389 2.78712e-06 7.42857V11.4286C2.78712e-06 12.0348 0.240818 12.6162 0.669473 13.0448C1.09813 13.4735 1.67951 13.7143 2.28572 13.7143H13.7143C14.3205 13.7143 14.9019 13.4735 15.3305 13.0448C15.7592 12.6162 16 12.0348 16 11.4286V7.42857C15.9999 7.38898 15.9958 7.3495 15.9879 7.31071ZM2.27357 2.11786C2.27357 2.11429 2.27357 2.11107 2.27357 2.10786C2.40036 1.44964 2.76679 1.14357 3.42679 1.14357H12.5714C13.2361 1.14357 13.6025 1.44893 13.7239 2.10464C13.7239 2.10929 13.7257 2.11393 13.7264 2.11857L14.6882 6.68571C14.6926 6.70652 14.6922 6.72804 14.6872 6.7487C14.6822 6.76936 14.6726 6.78864 14.6592 6.80514C14.6458 6.82163 14.6289 6.83492 14.6097 6.84404C14.5905 6.85316 14.5695 6.85788 14.5482 6.85786H10.2857C10.135 6.8571 9.99023 6.91617 9.88309 7.02211C9.77594 7.12805 9.71523 7.27218 9.71429 7.42286C9.71429 7.87751 9.53368 8.31355 9.21219 8.63504C8.89069 8.95653 8.45466 9.13714 8 9.13714C7.54534 9.13714 7.10931 8.95653 6.78782 8.63504C6.46633 8.31355 6.28572 7.87751 6.28572 7.42286C6.28534 7.34819 6.27026 7.27433 6.24134 7.20549C6.21242 7.13665 6.17023 7.07418 6.11717 7.02165C6.0641 6.96912 6.00121 6.92755 5.93209 6.89933C5.86296 6.8711 5.78895 6.85677 5.71429 6.85714H1.45179C1.43053 6.85717 1.40953 6.85245 1.39033 6.84333C1.37112 6.83421 1.35419 6.82092 1.34078 6.80442C1.32737 6.78793 1.3178 6.76865 1.31279 6.74799C1.30777 6.72733 1.30743 6.70581 1.31179 6.685L2.27357 2.11786Z" fill="#737B80"/>
</svg>
