<svg width="16" height="16" viewBox="0 0 16 16" fill="none" xmlns="http://www.w3.org/2000/svg">
<path d="M0.925537 8.13501C0.880737 8.66333 0.715088 9.17822 0.441772 9.63379L0.0155029 10.3438H1.40625C1.94824 10.3438 2.50183 10.1552 2.9165 9.81775C3.48755 10.0979 4.1084 10.2635 4.74377 10.3184C4.79663 9.66479 4.96838 9.04797 5.21155 8.46875H4.71875V7.53125H5.71533C6.7157 5.98096 8.38074 4.89966 10.3213 4.74365C10.095 2.10791 7.88086 0 5.1875 0C2.34436 0 0 2.34436 0 5.1875C0 6.25269 0.31958 7.26807 0.925537 8.13501ZM5.1875 1.90625C6.22156 1.90625 7.0625 2.74719 7.0625 3.78125C7.0625 4.65332 6.46423 5.38843 5.65625 5.5968V6.59375H4.71875V4.71875H5.1875C5.70435 4.71875 6.125 4.2981 6.125 3.78125C6.125 3.2644 5.70435 2.84375 5.1875 2.84375C4.67065 2.84375 4.25 3.2644 4.25 3.78125H3.3125C3.3125 2.74719 4.15344 1.90625 5.1875 1.90625Z" fill="#737B80"/>
<path d="M10.8125 5.65625C7.96936 5.65625 5.65625 7.96936 5.65625 10.8125C5.65625 13.6556 7.96936 16 10.8125 16C11.6017 16 12.3799 15.8192 13.0835 15.474C13.4982 15.8114 14.0205 16 14.5625 16H15.9845L15.5582 15.29C15.2849 14.8345 15.088 14.3196 15.0432 13.7913C15.6492 12.9243 16 11.8777 16 10.8125C16 7.96936 13.6556 5.65625 10.8125 5.65625ZM9.40625 11.2812H8.46875V10.3438H9.40625V11.2812ZM11.2812 11.2812H10.3438V10.3438H11.2812V11.2812ZM13.1562 11.2812H12.2188V10.3438H13.1562V11.2812Z" fill="#737B80"/>
</svg>
