<svg width="16" height="16" viewBox="0 0 16 16" fill="none" xmlns="http://www.w3.org/2000/svg">
<path d="M12.7074 5.84515C12.6146 5.75223 12.5043 5.67851 12.3829 5.62821C12.2615 5.57792 12.1315 5.55203 12.0001 5.55203C11.8687 5.55203 11.7386 5.57792 11.6173 5.62821C11.4959 5.67851 11.3856 5.75223 11.2928 5.84515L8.23542 8.90183C8.17291 8.96432 8.08814 8.99942 7.99975 8.99942C7.91136 8.99942 7.82659 8.96432 7.76408 8.90183L4.70742 5.84515C4.51991 5.65756 4.26556 5.55213 4.00032 5.55207C3.73508 5.552 3.48068 5.65731 3.29308 5.84482C3.10549 6.03233 3.00006 6.28668 3 6.55192C2.99994 6.81716 3.10524 7.07156 3.29275 7.25916L6.35008 10.3165C6.56676 10.5332 6.82399 10.7051 7.1071 10.8224C7.39021 10.9396 7.69365 11 8.00008 11C8.30652 11 8.60996 10.9396 8.89307 10.8224C9.17618 10.7051 9.43341 10.5332 9.65008 10.3165L12.7074 7.25916C12.8949 7.07163 13.0002 6.81732 13.0002 6.55216C13.0002 6.28699 12.8949 6.03268 12.7074 5.84515Z" fill="#5C6366"/>
</svg>
