<svg width="16" height="16" viewBox="0 0 16 16" fill="none" xmlns="http://www.w3.org/2000/svg">
<path d="M8.7083 0C3.89551 0 0 3.89485 0 8.7083C0 8.96742 0.210063 9.17749 0.469188 9.17749H8.7083C8.96742 9.17749 9.17749 8.96742 9.17749 8.7083V0.469188C9.17749 0.210063 8.96742 0 8.7083 0Z" fill="#737B80"/>
<path d="M5.3703 10.534C5.28798 10.3837 5.1302 10.2902 4.95883 10.2902H2.18401C2.03467 10.2902 1.8942 10.3613 1.80582 10.4818C1.71741 10.6022 1.69166 10.7574 1.73638 10.8999C2.6201 13.7146 5.16905 15.8072 8.23921 16V12.4831C7.03502 12.3337 5.9628 11.6157 5.3703 10.534Z" fill="#737B80"/>
<path d="M10.8998 1.73633C10.7573 1.69164 10.6019 1.71742 10.4816 1.80576C10.3611 1.89417 10.29 2.03461 10.29 2.18398V4.95877C10.29 5.13011 10.3835 5.28786 10.5338 5.37021C11.6154 5.96277 12.3335 7.03496 12.4829 8.23912H15.9998C15.8066 5.1623 13.7078 2.61798 10.8998 1.73633Z" fill="#737B80"/>
<path d="M12.4839 9.17746C12.2711 10.9008 10.9011 12.2708 9.17773 12.4837V15.9997C12.8388 15.7692 15.7692 12.8435 15.9999 9.17746H12.4839Z" fill="#737B80"/>
</svg>
