<svg width="16" height="14" viewBox="0 0 16 14" fill="none" xmlns="http://www.w3.org/2000/svg">
<path d="M5.33333 0C4.74423 0 4.26667 0.477567 4.26667 1.06667H1.06667C0.477567 1.06667 0 1.54423 0 2.13333C0 2.72243 0.477567 3.2 1.06667 3.2H4.26667C4.26667 3.7891 4.74423 4.26667 5.33333 4.26667C5.92243 4.26667 6.4 3.7891 6.4 3.2V1.06667C6.4 0.477567 5.92243 0 5.33333 0Z" fill="#5C6366"/>
<path d="M14.9332 5.86666H12.7998C12.7998 5.27756 12.3223 4.8 11.7332 4.8C11.1441 4.8 10.6665 5.27756 10.6665 5.86666V8C10.6665 8.5891 11.1441 9.06666 11.7332 9.06666C12.3223 9.06666 12.7998 8.5891 12.7998 8H14.9332C15.5223 8 15.9998 7.52243 15.9998 6.93333C15.9998 6.34423 15.5223 5.86666 14.9332 5.86666Z" fill="#5C6366"/>
<path d="M14.9331 1.06667H7.99977C7.41067 1.06667 6.93311 1.54423 6.93311 2.13333C6.93311 2.72243 7.41067 3.2 7.99977 3.2H14.9331C15.5222 3.2 15.9998 2.72243 15.9998 2.13333C15.9998 1.54423 15.5222 1.06667 14.9331 1.06667Z" fill="#5C6366"/>
<path d="M9.06667 5.86666H1.06667C0.477567 5.86666 0 6.34423 0 6.93333C0 7.52243 0.477567 7.99999 1.06667 7.99999H9.06667C9.65577 7.99999 10.1333 7.52243 10.1333 6.93333C10.1333 6.34423 9.65577 5.86666 9.06667 5.86666Z" fill="#5C6366"/>
<path d="M14.9334 10.6667H10.6668C10.0777 10.6667 9.6001 11.1442 9.6001 11.7333C9.6001 12.3224 10.0777 12.8 10.6668 12.8H14.9334C15.5225 12.8 16.0001 12.3224 16.0001 11.7333C16.0001 11.1442 15.5225 10.6667 14.9334 10.6667Z" fill="#5C6366"/>
<path d="M8 9.6C7.4109 9.6 6.93333 10.0776 6.93333 10.6667H1.06667C0.477567 10.6667 0 11.1442 0 11.7333C0 12.3224 0.477567 12.8 1.06667 12.8H6.93333C6.93333 13.3891 7.4109 13.8667 8 13.8667C8.5891 13.8667 9.06667 13.3891 9.06667 12.8V10.6667C9.06667 10.0776 8.5891 9.6 8 9.6Z" fill="#5C6366"/>
</svg>
