<svg width="16" height="16" viewBox="0 0 16 16" fill="none" xmlns="http://www.w3.org/2000/svg">
<path d="M16 2.35294V1.41176C15.7881 1.41176 9.17038 1.41176 8.47059 1.41176V0H7.52941V1.41176C7.29437 1.41176 0.392596 1.41176 0 1.41176V2.35294H0.941177V12.7059H0V13.6471H5.28649L4.30237 15.2873L5.10943 15.7715L6.38409 13.6471H7.52941V16H8.47059V13.6471H9.61591L10.8906 15.7715L11.6977 15.2873L10.7135 13.6471H16V12.7059H15.0588V2.35294H16ZM5.64706 4.23529C6.94447 4.23529 8 5.29082 8 6.58824C7.87075 9.70974 3.4229 9.70883 3.29412 6.5882C3.29412 5.29082 4.34965 4.23529 5.64706 4.23529ZM13.1765 11.2941H2.82353V10.3529H13.1765V11.2941ZM13.1765 7.52941H9.41177V6.58824H13.1765V7.52941ZM13.1765 5.64706H9.41177V4.70588H13.1765V5.64706Z" fill="#2EA8E6"/>
</svg>
