<svg width="16" height="16" viewBox="0 0 16 16" fill="none" xmlns="http://www.w3.org/2000/svg">
<path d="M6.62639 9.37469C5.0992 7.8475 4.75437 6.32031 4.67657 5.70845C4.65483 5.53926 4.71306 5.3696 4.83409 5.24941L6.06997 4.01408C6.25177 3.8324 6.28403 3.54924 6.14776 3.33132L4.18002 0.275835C4.02926 0.0345221 3.71972 -0.0525702 3.46525 0.0747298L0.306319 1.56247C0.10054 1.6638 -0.0204963 1.88243 0.00286762 2.11061C0.168387 3.68304 0.853911 7.54846 4.65257 11.3474C8.45123 15.1463 12.3161 15.8316 13.8894 15.9971C14.1175 16.0205 14.3362 15.8994 14.4375 15.6937L15.9252 12.5347C16.0521 12.2808 15.9656 11.9721 15.7252 11.8211L12.6698 9.85387C12.452 9.71746 12.1688 9.74949 11.987 9.93111L10.7517 11.167C10.6315 11.288 10.4618 11.3462 10.2926 11.3245C9.68076 11.2467 8.15357 10.9019 6.62639 9.37469Z" fill="#D4D7D9"/>
<path d="M12.6907 8.55183C12.3859 8.55183 12.1389 8.30481 12.1389 8.0001C12.1363 5.71583 10.2852 3.86471 8.00095 3.86213C7.69624 3.86213 7.44922 3.61511 7.44922 3.3104C7.44922 3.00568 7.69624 2.75867 8.00095 2.75867C10.8944 2.76186 13.2392 5.10666 13.2424 8.0001C13.2424 8.30481 12.9954 8.55183 12.6907 8.55183Z" fill="#D4D7D9"/>
<path d="M15.4493 8.55181C15.1446 8.55181 14.8976 8.3048 14.8976 8.00008C14.8933 4.19295 11.8081 1.10772 8.00095 1.10346C7.69624 1.10346 7.44922 0.856442 7.44922 0.55173C7.44922 0.247018 7.69624 0 8.00095 0C12.4173 0.00486512 15.9962 3.58378 16.001 8.00008C16.001 8.14641 15.9429 8.28675 15.8394 8.39022C15.736 8.49368 15.5956 8.55181 15.4493 8.55181Z" fill="#D4D7D9"/>
</svg>
