<svg width="15" height="16" viewBox="0 0 15 16" fill="none" xmlns="http://www.w3.org/2000/svg">
<path d="M13.6553 6.64309L7.41501 0.401919C7.04698 0.0347935 6.45163 0.0391372 6.08841 0.40145C5.72313 0.76767 5.72313 1.3623 6.08841 1.72805L12.3296 7.96878C12.6952 8.3344 13.2896 8.3344 13.6553 7.96878C14.0219 7.60215 14.0219 7.00965 13.6553 6.64309Z" fill="#737B80"/>
<path d="M5.62586 2.59076L5.57889 2.8262C5.24804 4.48114 4.44398 6.05336 3.35645 7.32764L6.75167 10.7229C8.0258 9.63555 9.57636 8.8099 11.2314 8.47865L11.4672 8.43168L5.62586 2.59076Z" fill="#737B80"/>
<path d="M2.73248 8.03091L0.412068 10.3509C-0.136215 10.8991 -0.138496 11.7893 0.412068 12.3398L1.73776 13.6655C2.28604 14.2138 3.17617 14.2161 3.72673 13.6655L6.04692 11.3453L2.73248 8.03091ZM3.06392 11.677C2.88082 11.8601 2.58417 11.8601 2.40107 11.677C2.21798 11.4939 2.21798 11.1973 2.40107 11.0142L3.06392 10.3513C3.24701 10.1682 3.54367 10.1682 3.72676 10.3513C3.90986 10.5344 3.90986 10.8311 3.72676 11.0142L3.06392 11.677Z" fill="#737B80"/>
<path d="M8.00391 13.915L8.64157 13.2773C9.19216 12.7268 9.19035 11.8367 8.6416 11.2889L8.16797 10.8149C7.90619 10.9907 7.65619 11.1818 7.41313 11.3857L7.97875 11.9521C8.16141 12.1339 8.16269 12.4296 7.97875 12.6145L7.33056 13.2627L6.378 12.3398L5.05225 13.6655L7.17903 15.7264C7.54197 16.0903 8.13788 16.0923 8.50425 15.7259C8.87 15.3602 8.87 14.7655 8.50425 14.3998L8.00391 13.915Z" fill="#737B80"/>
<path d="M9.896 0C9.6369 0 9.42725 0.209657 9.42725 0.468751V1.40625C9.42725 1.66535 9.6369 1.875 9.896 1.875C10.1551 1.875 10.3647 1.66535 10.3647 1.40625V0.468751C10.3647 0.209657 10.1551 0 9.896 0Z" fill="#737B80"/>
<path d="M13.646 3.75H12.7085C12.4494 3.75 12.2397 3.95966 12.2397 4.21875C12.2397 4.47785 12.4494 4.6875 12.7085 4.6875H13.646C13.9051 4.6875 14.1147 4.47785 14.1147 4.21875C14.1147 3.95966 13.9051 3.75 13.646 3.75Z" fill="#737B80"/>
<path d="M13.0399 1.07482C12.8568 0.891726 12.5602 0.891726 12.3771 1.07482L11.4396 2.01232C11.2565 2.19542 11.2565 2.49207 11.4396 2.67517C11.6227 2.85826 11.9193 2.85829 12.1024 2.67517L13.0399 1.73767C13.223 1.55457 13.223 1.25791 13.0399 1.07482Z" fill="#737B80"/>
</svg>
