<svg width="16" height="16" viewBox="0 0 16 16" fill="none" xmlns="http://www.w3.org/2000/svg">
<path d="M15.5 16H12.8333C12.5573 16 12.3333 15.776 12.3333 15.5V14.6667H10.3333V15.5C10.3333 15.776 10.1093 16 9.83333 16H6.16667C5.89067 16 5.66667 15.776 5.66667 15.5V14.6667H3.66667V15.5C3.66667 15.776 3.44267 16 3.16667 16H0.5C0.224 16 0 15.776 0 15.5V13.3333H16V15.5C16 15.776 15.776 16 15.5 16Z" fill="#737B80"/>
<path d="M10.6665 0H8.6665V1.33333C8.6665 1.70133 8.36784 2 7.99984 2C7.63184 2 7.33317 1.70133 7.33317 1.33333V0H5.33317C4.96517 0 4.6665 0.298667 4.6665 0.666667V4.66667C4.6665 5.03467 4.96517 5.33333 5.33317 5.33333H10.6665C11.0345 5.33333 11.3332 5.03467 11.3332 4.66667V0.666667C11.3332 0.298667 11.0345 0 10.6665 0Z" fill="#737B80"/>
<path d="M6.6665 6.66666H4.6665V7.99999C4.6665 8.36799 4.36784 8.66666 3.99984 8.66666C3.63184 8.66666 3.33317 8.36799 3.33317 7.99999V6.66666H1.33317C0.965171 6.66666 0.666504 6.96532 0.666504 7.33332V11.3333C0.666504 11.7013 0.965171 12 1.33317 12H6.6665C7.0345 12 7.33317 11.7013 7.33317 11.3333V7.33332C7.33317 6.96532 7.0345 6.66666 6.6665 6.66666Z" fill="#737B80"/>
<path d="M14.6665 6.66666H12.6665V7.99999C12.6665 8.36799 12.3678 8.66666 11.9998 8.66666C11.6318 8.66666 11.3332 8.36799 11.3332 7.99999V6.66666H9.33317C8.96517 6.66666 8.6665 6.96532 8.6665 7.33332V11.3333C8.6665 11.7013 8.96517 12 9.33317 12H14.6665C15.0345 12 15.3332 11.7013 15.3332 11.3333V7.33332C15.3332 6.96532 15.0345 6.66666 14.6665 6.66666Z" fill="#737B80"/>
</svg>
