<svg width="16" height="16" viewBox="0 0 16 16" fill="none" xmlns="http://www.w3.org/2000/svg">
<path fill-rule="evenodd" clip-rule="evenodd" d="M6.8512 2.24963L7.9375 2.80176V0H5.34375V2.80176L6.42896 2.25024C6.55701 2.1853 6.71313 2.18005 6.8512 2.24963Z" fill="#737B80"/>
<path fill-rule="evenodd" clip-rule="evenodd" d="M13.2812 5.6637V0.46875C13.2812 0.209839 13.0714 0 12.8125 0H8.875V3.56445C8.875 3.90149 8.51538 4.16089 8.16418 3.96582L6.64062 3.19165L5.08557 3.98193C4.77344 4.14001 4.4071 3.9093 4.40735 3.56445L4.40625 0H0.46875C0.209839 0 0 0.209839 0 0.46875V12.8125C0 13.0714 0.209839 13.2812 0.46875 13.2812H5.6637C5.08545 11.8564 5.09155 10.2716 5.67981 8.85156C6.90991 5.88171 10.3025 4.45483 13.2812 5.6637Z" fill="#737B80"/>
<path fill-rule="evenodd" clip-rule="evenodd" d="M14.5607 7.61121C13.6714 6.72192 12.4429 6.17188 11.0859 6.17188C9.729 6.17188 8.50049 6.72192 7.61121 7.61121C6.72192 8.50049 6.17188 9.729 6.17188 11.0859C6.17188 12.4429 6.72192 13.6714 7.61121 14.5607C8.50049 15.45 9.729 16 11.0859 16C12.4429 16 13.6714 15.45 14.5607 14.5607C15.45 13.6714 16 12.4429 16 11.0859C16 9.729 15.45 8.50049 14.5607 7.61121ZM13.062 12.6246C12.7339 12.9528 12.2806 13.1562 11.7811 13.1562H9.59375C9.33484 13.1562 9.125 12.9464 9.125 12.6875C9.125 12.4286 9.33484 12.2188 9.59375 12.2188H11.7811C12.2626 12.2188 12.6562 11.8251 12.6562 11.3436C12.6562 11.0833 12.575 10.8702 12.3992 10.6946C12.2406 10.5359 12.0219 10.4375 11.7811 10.4375H10.4753L10.7538 10.7155C10.9369 10.8975 10.9377 11.1935 10.7557 11.3765C10.5737 11.5596 10.2777 11.5603 10.0947 11.3783L9.01758 10.3032C8.83447 10.1212 8.83374 9.82532 9.01575 9.64221L10.0908 8.56519C10.2728 8.3822 10.5687 8.38135 10.7518 8.56335C10.9348 8.74536 10.9357 9.04126 10.7537 9.22437L10.4785 9.5H11.7811C12.7802 9.5 13.5938 10.3136 13.5938 11.3126C13.5938 11.8329 13.407 12.2797 13.062 12.6246Z" fill="#737B80"/>
</svg>
