<svg width="17" height="17" viewBox="0 0 17 17" fill="none" xmlns="http://www.w3.org/2000/svg">
<path d="M15.8293 14.884L11.2765 10.3343C12.2984 9.07108 12.7967 7.4639 12.6686 5.84412C12.5406 4.22434 11.7959 2.71544 10.5881 1.62851C9.38037 0.541573 7.80161 -0.0405343 6.17734 0.0021965C4.55307 0.0449273 3.0071 0.709239 1.85817 1.85817C0.709238 3.0071 0.0449273 4.55307 0.0021965 6.17734C-0.0405343 7.80162 0.541572 9.38037 1.62851 10.5881C2.71544 11.7959 4.22434 12.5406 5.84412 12.6686C7.4639 12.7967 9.07108 12.2984 10.3343 11.2765L14.8832 15.8277C14.9452 15.8899 15.0188 15.9392 15.0998 15.9728C15.1808 16.0065 15.2677 16.0239 15.3554 16.024C15.4432 16.0241 15.5301 16.007 15.6112 15.9735C15.6923 15.94 15.766 15.8909 15.8281 15.8289C15.8903 15.7669 15.9396 15.6933 15.9732 15.6123C16.0069 15.5313 16.0243 15.4444 16.0244 15.3567C16.0245 15.269 16.0073 15.1821 15.9739 15.101C15.9404 15.0199 15.8913 14.9461 15.8293 14.884ZM6.35564 11.3555C5.36691 11.3555 4.40038 11.0623 3.57828 10.513C2.75618 9.96371 2.11544 9.18295 1.73706 8.26949C1.35869 7.35602 1.2597 6.35087 1.45259 5.38113C1.64548 4.4114 2.1216 3.52065 2.82073 2.82151C3.51987 2.12237 4.41063 1.64625 5.38036 1.45336C6.35009 1.26047 7.35524 1.35947 8.26871 1.73784C9.18218 2.11621 9.96293 2.75696 10.5122 3.57906C11.0615 4.40116 11.3547 5.36768 11.3547 6.35641C11.3533 7.68181 10.8262 8.95252 9.88895 9.88973C8.95175 10.8269 7.68104 11.3541 6.35564 11.3555Z" fill="#737B80"/>
</svg>
