<svg width="17" height="16" viewBox="0 0 17 16" fill="none" xmlns="http://www.w3.org/2000/svg">
<path d="M8.79232 14.0872C9.22978 14.5247 9.22978 15.2342 8.79232 15.6716C8.35486 16.1095 7.64535 16.1095 7.20771 15.6716L0.327863 8.79208C0.109241 8.57335 0 8.2866 0 7.99988C0 7.71324 0.109453 7.42652 0.327863 7.2079L7.20771 0.328262C7.64535 -0.109373 8.35486 -0.109373 8.79232 0.328262C9.22978 0.765719 9.22978 1.47513 8.79232 1.9128L2.70502 7.99988L8.79232 14.0872ZM9.67935 7.99988L15.7667 1.91276C16.2041 1.47513 16.2041 0.765684 15.7667 0.328226C15.3292 -0.109409 14.6197 -0.109409 14.182 0.328226L7.30222 7.2079C7.0836 7.42673 6.97432 7.71324 6.97432 7.99988C6.97432 8.28664 7.08381 8.57335 7.30222 8.79208L14.182 15.6716C14.6197 16.1095 15.3292 16.1095 15.7667 15.6716C16.2041 15.2342 16.2041 14.5246 15.7667 14.0872L9.67935 7.99988Z" fill="#454A4D"/>
</svg>
