<svg width="23" height="16" viewBox="0 0 23 16" fill="none" xmlns="http://www.w3.org/2000/svg">
<path d="M22.2561 3.53282C22.2561 1.65787 20.8078 0.149579 19.0182 0.149579C16.5941 0.0416654 14.1219 0 11.5955 0H10.8079C8.28756 0 5.811 0.0416655 3.38694 0.149996C1.60172 0.149996 0.15341 1.66662 0.15341 3.54157C0.0440216 5.02445 -0.00235925 6.50774 0.000266081 7.99103C-0.00410947 9.47433 0.0454801 10.959 0.149035 12.4451C0.149035 14.32 1.59734 15.8408 3.38257 15.8408C5.92914 15.9533 8.54134 16.0033 11.1973 15.9991C13.8576 16.0075 16.4625 15.9547 19.012 15.8408C20.8016 15.8408 22.2499 14.32 22.2499 12.4451C22.355 10.9576 22.4031 9.47433 22.3987 7.98687C22.4086 6.50357 22.3611 5.01889 22.2561 3.53282ZM9.05766 12.0784V3.89114L15.4022 7.9827L9.05766 12.0784Z" fill="#737B80"/>
</svg>
